<?xml version="1.0" standalone="no"?>
<!DOCTYPE svg PUBLIC "-//W3C//DTD SVG 20010904//EN"
 "http://www.w3.org/TR/2001/REC-SVG-20010904/DTD/svg10.dtd">
<svg version="1.0" xmlns="http://www.w3.org/2000/svg"
 width="300.000000pt" height="57.000000pt" viewBox="0 0 300.000000 57.000000"
 preserveAspectRatio="xMidYMid meet">
<metadata>
Created by potrace 1.10, written by Peter Selinger 2001-2011
</metadata>
<g transform="translate(0.000000,57.000000) scale(0.100000,-0.100000)"
fill="#000000" stroke="none">
<path d="M315 323 c-20 -82 -39 -158 -42 -170 -5 -20 -1 -23 26 -23 29 0 31 2
31 35 0 35 0 35 45 35 38 0 45 -3 45 -19 0 -36 12 -51 40 -51 l27 0 -38 152
c-21 84 -39 161 -39 171 0 12 -8 17 -29 17 l-29 0 -37 -147z m78 10 c4 -27 9
-58 13 -70 6 -20 3 -23 -25 -23 -19 0 -31 5 -31 13 0 29 23 127 30 127 4 0 10
-21 13 -47z"/>
<path d="M660 300 l0 -170 31 0 c23 0 30 4 26 14 -9 23 -10 181 -2 186 4 3 15
-24 24 -60 11 -44 22 -66 33 -68 17 -3 21 7 44 101 3 15 11 30 16 34 7 4 9
-29 6 -101 l-5 -106 29 0 28 0 0 171 0 170 -26 -3 c-24 -3 -30 -13 -55 -83
-16 -44 -29 -81 -29 -82 0 -10 -20 0 -20 10 0 6 -12 45 -26 85 -23 62 -30 72
-50 72 l-24 0 0 -170z"/>
<path d="M1085 300 l0 -170 28 0 c27 0 27 0 27 71 0 61 2 70 17 67 12 -2 23
-25 37 -71 18 -63 21 -67 47 -67 16 0 29 2 29 4 0 3 -12 37 -27 77 -26 70 -26
72 -7 86 15 11 19 26 19 74 0 80 -21 99 -109 99 l-61 0 0 -170z m115 101 c22
-42 10 -74 -32 -85 -28 -6 -28 -6 -28 49 0 52 1 55 25 55 14 0 29 -8 35 -19z"/>
<path d="M1450 325 c0 -142 1 -147 25 -170 33 -34 87 -34 120 0 24 23 25 28
25 170 l0 145 -25 0 -25 0 0 -140 c0 -121 -2 -140 -17 -149 -11 -6 -24 -6 -35
0 -16 9 -18 26 -18 149 l0 140 -25 0 -25 0 0 -145z"/>
<path d="M1800 445 c0 -21 5 -25 30 -25 l30 0 0 -145 0 -145 25 0 25 0 0 145
0 145 30 0 c25 0 30 4 30 25 0 25 -1 25 -85 25 -84 0 -85 0 -85 -25z"/>
<path d="M2146 312 c-21 -86 -40 -163 -43 -169 -3 -9 5 -13 25 -13 26 0 31 4
36 36 7 34 8 35 49 32 39 -3 42 -5 45 -35 3 -29 7 -33 34 -33 20 0 29 4 26 13
-3 6 -22 83 -43 170 -37 153 -38 157 -64 157 -25 0 -27 -4 -65 -158z m83 5 c6
-35 11 -67 11 -70 0 -4 -14 -7 -31 -7 -28 0 -31 2 -25 25 4 14 9 45 13 70 3
25 9 45 13 45 5 0 13 -28 19 -63z"/>
<path d="M2490 301 l0 -171 29 0 30 0 -6 108 c-6 119 3 126 33 25 10 -37 23
-63 31 -63 15 0 15 0 38 83 9 31 19 57 23 57 4 0 6 -47 4 -105 l-3 -105 25 0
26 0 0 170 0 170 -24 0 c-20 0 -27 -10 -50 -77 -15 -43 -30 -85 -32 -93 -3 -8
-20 25 -38 75 -29 80 -36 90 -60 93 l-26 3 0 -170z"/>
</g>
</svg>
